<svg xmlns="http://www.w3.org/2000/svg" xmlns:xlink="http://www.w3.org/1999/xlink" width="500pt" height="500pt" viewBox="0 0 500 500"><path d="M0 500h500V0H0z" fill="#009640"/><clipPath id="a"><path transform="matrix(1 0 0 -1 0 500)" d="M0 0h500v500H0z"/></clipPath><g clip-path="url(#a)"><path d="m150.69 243.55-.366-.617-.358-.621-.717-1.247c-.457-.842-.902-1.691-1.345-2.546a20.367 20.367 0 0 1-.323-.644l-.313-.65-.625-1.302c-.216-.434-.398-.877-.596-1.318l-.583-1.327a95.886 95.886 0 0 1-3.902-10.993l-.205-.705-.19-.71-.376-1.422-.188-.713c-.061-.238-.112-.477-.17-.716l-.33-1.438a95.596 95.596 0 0 1-1.131-5.813 103.993 103.993 0 0 1-1.25-11.868c-.381-7.991.142-16.1 1.565-24.11a112.511 112.511 0 0 1 2.792-11.92 114.733 114.733 0 0 1 4.095-11.62 115.502 115.502 0 0 1 5.358-11.176c.507-.903 1.005-1.814 1.53-2.71l.795-1.336.4-.67.2-.333.207-.33.833-1.317c.28-.438.552-.882.844-1.311l.867-1.298c.289-.433.577-.867.88-1.29a117.35 117.35 0 0 1 16.419-18.918 118.265 118.265 0 0 1 20.179-15.1 120.565 120.565 0 0 1 47.561-16.064 118.083 118.083 0 0 1 25.206-.224 117.038 117.038 0 0 1 24.53 5.098 116 116 0 0 1 22.679 10.099 115.196 115.196 0 0 1 10.303 6.767 112.836 112.836 0 0 1 9.444 7.794 108.47 108.47 0 0 1 15.853 18.245 104.093 104.093 0 0 1 6.193 10.205l.688 1.315c.112.22.23.437.339.659l.325.666.645 1.333c.106.222.216.442.318.666l.304.675a97.142 97.142 0 0 1 2.293 5.424 95.89 95.89 0 0 1 3.548 11.116l.338 1.41.168.703c.028.117.058.233.082.35l.073.356.292 1.416.143.707c.047.235.095.47.133.708.164.95.324 1.895.468 2.84l.184 1.429.09.712.082.712-.382-.61-.375-.608-.745-1.215-1.516-2.4c-.123-.2-.255-.396-.385-.592l-.388-.59-.771-1.176-.192-.293-.197-.29-.396-.58-.79-1.154a139.865 139.865 0 0 0-6.63-8.842l-.426-.532-.438-.524-.88-1.043-.436-.52c-.146-.173-.298-.342-.447-.513l-.892-1.021-.445-.51c-.148-.17-.304-.333-.457-.5l-.913-.995-.453-.5c-.15-.165-.31-.325-.464-.488l-.927-.973a126.104 126.104 0 0 0-7.701-7.368c-10.591-9.313-22.472-16.54-34.993-21.514a115.522 115.522 0 0 0-19.172-5.754 112.76 112.76 0 0 0-19.601-2.304 110.557 110.557 0 0 0-19.522 1.173 111.282 111.282 0 0 0-18.968 4.58 111.158 111.158 0 0 0-17.875 7.833 110.31 110.31 0 0 0-16.251 10.886c-10.201 8.228-19.033 18.357-25.987 29.904-6.95 11.548-12.024 24.502-14.804 38.333-.696 3.458-1.25 6.97-1.657 10.53l-.147 1.337c-.024.223-.053.447-.072.67l-.06.67-.121 1.347c-.02.225-.045.45-.06.675l-.045.675-.09 1.353-.044.679-.033.679-.066 1.362-.031.682-.015.682c-.12 3.647-.083 7.33.09 11.052l.074 1.396.037.7.018.35.026.35.1 1.403.05.704c.015.235.03.47.054.705l.25 2.825.145 1.418.072.712z" fill="#fff"/><path d="m289.161 304.904-.514.298-.517.29-1.04.58c-.7.367-1.409.725-2.122 1.08-.715.35-1.44.67-2.167 1.004-.363.171-.732.314-1.099.471l-1.107.461a76.28 76.28 0 0 1-9.176 3.015c-1.57.403-3.158.775-4.76 1.08a75.977 75.977 0 0 1-4.85.796 83.868 83.868 0 0 1-9.888.72 88.11 88.11 0 0 1-20.01-2.047 92.142 92.142 0 0 1-19.388-6.57 94.872 94.872 0 0 1-9.129-4.9c-.735-.458-1.477-.91-2.204-1.383l-1.086-.718-.544-.36-.27-.18-.269-.186-1.068-.749c-.354-.252-.714-.497-1.062-.759l-1.05-.775a96.752 96.752 0 0 1-16.182-15.316 97.662 97.662 0 0 1-11.743-17.57 99.845 99.845 0 0 1-11.156-40.592 97.63 97.63 0 0 1 1.118-21.107 96.543 96.543 0 0 1 5.598-20.228 95.348 95.348 0 0 1 9.73-18.34 92.337 92.337 0 0 1 13.323-15.553 88.123 88.123 0 0 1 16.173-11.973 83.575 83.575 0 0 1 8.876-4.426 75.83 75.83 0 0 1 4.58-1.788 76.561 76.561 0 0 1 4.647-1.499 75.642 75.642 0 0 1 9.435-2.082l1.19-.168c.395-.053.785-.118 1.185-.155l1.19-.126.592-.06c.198-.02.395-.04.595-.052.794-.058 1.586-.112 2.377-.152l1.191-.03.593-.014.593-.006-.507.312-.508.303-1.01.604-1.997 1.222-1.96 1.241c-.649.415-1.289.844-1.927 1.262a119.497 119.497 0 0 0-7.342 5.291l-.442.338-.435.35-.866.698c-.579.46-1.14.942-1.706 1.411-.57.462-1.112.965-1.666 1.441l-.413.36c-.138.118-.27.244-.407.367l-.809.735c-2.146 1.967-4.19 4-6.13 6.093-7.759 8.372-13.846 17.72-18.189 27.571a95.121 95.121 0 0 0-5.188 15.091 92.305 92.305 0 0 0-2.525 15.467 90.262 90.262 0 0 0 .154 15.487 91.001 91.001 0 0 0 2.791 15.19 90.627 90.627 0 0 0 5.337 14.492 90.195 90.195 0 0 0 7.764 13.406c5.96 8.51 13.467 16.1 22.232 22.361 8.767 6.258 18.78 11.19 29.73 14.423 2.738.81 5.535 1.512 8.385 2.106.713.138 1.43.305 2.15.425l1.08.201c.18.032.361.07.543.098l.544.088 1.09.175.548.087.55.078 1.101.158.552.078.553.065c2.956.378 5.961.636 9.015.793.762.033 1.53.073 2.3.098l2.32.064c.773.004 1.555.02 2.34.03h1.176l.591.001z" fill="#fff"/><path d="M203.76 180.9a97.094 97.094 0 0 1 10.637 12.934c3.372 4.914 4.58 7.649 5.098 8.9 1.861 4.493 2.593 8.579 2.912 11.392.152 8.478-1.719 14.238-3.595 18.045-2.886 5.857-15.57 20.214-11.53 15.308a29.914 29.914 0 0 0 7.058-2.901c2.012-1.145 3.557-2.328 9.141-7.132 3.562-3.063 5.342-4.595 6.231-5.421 8.97-8.33 14.887-21.377 16.204-24.282 1.03-2.271 5.126-11.535 7.547-24.786a116.577 116.577 0 0 0 1.89-20.037l-.264-10.281c-.12 2.3-.412 4.878-.996 7.644a48.157 48.157 0 0 1-7.783 17.848c-2.78 5.024-6.117 7.237-7.759 8.145-2.41 1.333-4.51 1.704-7.127 2.166a31.956 31.956 0 0 1-9.753.216c-.758-.1-3.972-.553-8.026-2.135-2.565-1.002-6.082-2.696-9.885-5.623M255.822 210.778c4.097.109 7.703 1.729 10.828 4.876l.576-1.75c.198-.592.385-1.191.598-1.778.296-.815.117-1.547-.26-2.25-.726-1.35-1.807-2.22-2.99-2.938a9.764 9.764 0 0 0-3.08-1.227c-.85-.178-1.707-.253-2.563-.072-.597.126-1.185.334-1.59.896-.198.272-.324.625-.44.96-.373 1.067-.727 2.142-1.088 3.214-.004.013.004.03.01.069" fill="#ffed00"/><path d="M270.815 211.432c-.387 1.156-.762 2.282-1.143 3.425-.26-.048-.367.148-.434.403-.027.101-.08.195-.092.297-.043.373-.319.522-.512.751-.437.518-.724 1.144-.978 1.825.551.248 1.094.495 1.639.73.04.017.15-.043.161-.089.195-.77.392-1.54.248-2.362a.705.705 0 0 1 .026-.302c.065-.224.15-.44.22-.662a.485.485 0 0 0-.055-.457.25.25 0 0 1-.022-.185c.352-1.078.707-2.153 1.072-3.224.026-.076.14-.154.218-.158.603-.034 1.207-.049 1.84-.07-.22-.26-.415-.497-.616-.726a842.66 842.66 0 0 0-2.796-3.166c-.71-.8-1.428-1.593-2.139-2.393a418.481 418.481 0 0 1-2.395-2.717c-.103-.117-.2-.185-.346-.175a43.88 43.88 0 0 1-1.204.051c-1.228.04-2.455.075-3.683.114l-2.46.084c-1.151.038-2.303.074-3.454.115-.082.002-.163.027-.291.05l3.32 3.747c.48-.72 1.125-1.054 1.853-1.222 1.136-.263 2.26-.13 3.369.182a10.47 10.47 0 0 1 3.9 2.047c.619.515 1.183 1.097 1.627 1.817.428.692.702 1.45.618 2.35l2.509-.08" fill="#ffed00"/><path d="M287.185 224.604a97.03 97.03 0 0 0-10.637 12.935c-3.372 4.913-4.58 7.648-5.098 8.9-1.86 4.493-2.591 8.579-2.91 11.391-.154 8.478 1.717 14.238 3.593 18.046 2.887 5.856 15.57 20.213 11.531 15.308a29.881 29.881 0 0 1-7.058-2.902c-2.012-1.144-3.558-2.328-9.142-7.132-3.56-3.063-5.34-4.594-6.23-5.421-8.97-8.33-14.887-21.377-16.204-24.282-1.03-2.271-5.126-11.535-7.548-24.786a116.577 116.577 0 0 1-1.89-20.037c.09-3.427.176-6.854.264-10.281.12 2.301.412 4.878.996 7.644a48.149 48.149 0 0 0 7.783 17.848c2.782 5.025 6.118 7.237 7.76 8.145 2.41 1.333 4.51 1.704 7.126 2.166 4.177.737 7.628.498 9.754.217.759-.101 3.973-.554 8.026-2.136 2.565-1.001 6.082-2.695 9.885-5.623" fill="#ffed00"/><path d="M253.164 220.47c0 3.734 2.672 6.76 5.968 6.76s5.968-3.026 5.968-6.76c0-3.733-2.672-6.76-5.968-6.76s-5.968 3.027-5.968 6.76M237.778 170.483c-3.625.097-6.815 1.53-9.58 4.313-.177-.538-.342-1.042-.51-1.546-.174-.526-.34-1.056-.528-1.575-.261-.721-.104-1.368.23-1.99.643-1.195 1.599-1.964 2.646-2.6A8.628 8.628 0 0 1 232.76 166c.752-.157 1.51-.224 2.267-.063.529.11 1.048.295 1.409.792.174.24.284.553.388.85.33.944.643 1.894.962 2.843.004.01-.004.027-.008.06" fill="#ffed00"/><path d="m224.515 171.061 1.01 3.03c.23-.042.324.131.385.357.023.09.07.173.08.263.04.33.283.461.454.664.385.458.64 1.012.866 1.614-.488.22-.968.44-1.451.647-.036.014-.132-.038-.142-.08-.173-.68-.348-1.363-.221-2.089a.606.606 0 0 0-.022-.267c-.058-.197-.133-.388-.195-.585a.434.434 0 0 1 .049-.406.215.215 0 0 0 .02-.163c-.312-.952-.625-1.904-.95-2.851-.022-.069-.123-.136-.191-.14-.534-.03-1.07-.044-1.63-.064.196-.229.369-.439.547-.64.823-.935 1.647-1.87 2.473-2.803.628-.708 1.263-1.409 1.892-2.115.709-.8 1.417-1.6 2.12-2.404.09-.105.176-.163.306-.155.355.02.709.034 1.064.044 1.086.035 2.173.067 3.259.101.725.023 1.45.05 2.176.075 1.019.034 2.038.066 3.057.101.072.002.145.024.257.046l-2.938 3.313c-.424-.637-.995-.931-1.64-1.08-1.004-.232-1.998-.117-2.98.16a9.263 9.263 0 0 0-3.451 1.811c-.547.456-1.045.97-1.438 1.608-.378.613-.621 1.282-.547 2.078l-2.22-.07" fill="#ffed00"/><path d="M210.03 182.715a85.867 85.867 0 0 1 9.411 11.443c2.984 4.348 4.051 6.767 4.51 7.875 1.646 3.974 2.294 7.589 2.577 10.077.134 7.5-1.522 12.597-3.182 15.965-2.553 5.182-13.774 17.883-10.2 13.543a26.424 26.424 0 0 0 6.245-2.567c1.78-1.013 3.146-2.06 8.087-6.31 3.15-2.71 4.726-4.065 5.512-4.795 7.936-7.37 13.17-18.913 14.336-21.482.911-2.01 4.534-10.206 6.677-21.93a103.185 103.185 0 0 0 1.672-17.726c-.079-3.031-.156-6.064-.234-9.095a43.7 43.7 0 0 1-.88 6.762 42.613 42.613 0 0 1-6.886 15.79c-2.46 4.446-5.413 6.403-6.865 7.206-2.132 1.18-3.99 1.508-6.305 1.916a28.297 28.297 0 0 1-8.629.192c-.67-.09-3.514-.49-7.1-1.89-2.27-.886-5.382-2.384-8.746-4.974" fill="#ffed00"/><path d="M240.13 178.238c0 3.303-2.364 5.98-5.28 5.98-2.916 0-5.28-2.677-5.28-5.98 0-3.304 2.364-5.981 5.28-5.981 2.916 0 5.28 2.677 5.28 5.98M256.09 209.148c3.624.097 6.815 1.53 9.58 4.314l.51-1.547c.174-.525.34-1.056.528-1.574.262-.722.104-1.37-.23-1.99-.643-1.195-1.6-1.965-2.646-2.6a8.628 8.628 0 0 0-2.724-1.086c-.751-.157-1.51-.223-2.267-.063-.528.11-1.05.295-1.408.793-.174.24-.285.553-.39.85-.33.943-.641 1.894-.961 2.842-.004.01.003.028.008.06" fill="#ffed00"/><path d="m269.353 209.727-1.01 3.03c-.23-.042-.325.131-.385.357-.024.09-.07.173-.082.263-.037.33-.28.461-.452.664-.385.458-.64 1.012-.865 1.614.486.22.966.438 1.45.646.035.015.132-.038.142-.079.173-.68.349-1.363.22-2.089a.622.622 0 0 1 .024-.267c.058-.199.132-.389.194-.586a.436.436 0 0 0-.048-.405.216.216 0 0 1-.022-.164c.313-.952.626-1.904.95-2.85.024-.069.125-.137.192-.14.534-.03 1.068-.045 1.628-.064-.195-.229-.366-.439-.544-.64-.825-.936-1.647-1.872-2.474-2.803-.629-.708-1.264-1.409-1.893-2.116a404.382 404.382 0 0 1-2.12-2.404c-.09-.104-.175-.163-.305-.155a37.68 37.68 0 0 1-1.064.045c-1.087.035-2.173.067-3.26.101-.724.023-1.45.05-2.175.074-1.02.034-2.038.066-3.056.102-.073.002-.145.024-.258.044.99 1.118 1.96 2.214 2.938 3.315.424-.637.996-.932 1.639-1.08 1.005-.233 1.999-.117 2.98.16a9.267 9.267 0 0 1 3.452 1.811c.546.455 1.046.97 1.438 1.608.379.612.62 1.282.546 2.078l2.22-.07" fill="#ffed00"/><path d="M283.837 221.38a85.862 85.862 0 0 0-9.41 11.443c-2.984 4.347-4.052 6.767-4.511 7.875-1.645 3.974-2.293 7.588-2.576 10.077-.134 7.5 1.52 12.597 3.18 15.965 2.554 5.182 13.775 17.883 10.202 13.543a26.472 26.472 0 0 1-6.245-2.568c-1.78-1.012-3.147-2.059-8.087-6.308-3.151-2.71-4.726-4.066-5.512-4.796-7.937-7.37-13.171-18.914-14.336-21.483-.912-2.009-4.535-10.205-6.677-21.929a103.202 103.202 0 0 1-1.672-17.726l.233-9.095c.106 2.034.365 4.315.88 6.762a42.611 42.611 0 0 0 6.887 15.79c2.46 4.446 5.413 6.403 6.865 7.206 2.132 1.18 3.989 1.507 6.304 1.916 3.696.652 6.748.441 8.629.192.67-.089 3.515-.49 7.1-1.89 2.27-.886 5.382-2.384 8.746-4.974" fill="#ffed00"/></g><symbol id="b"><path d="M.058.013A.01.01 0 0 0 .057.007.01.01 0 0 0 .052.003.033.033 0 0 0 .043.001a.088.088 0 0 0-.028 0 .042.042 0 0 0-.01.002.01.01 0 0 0-.004.004A.014.014 0 0 0 0 .013V.67l.001.005A.01.01 0 0 0 .006.68a.022.022 0 0 0 .009.003.088.088 0 0 0 .028 0A.019.019 0 0 0 .052.68.01.01 0 0 0 .057.676.01.01 0 0 0 .058.671V.013z"/></symbol><symbol id="c"><path d="M.142.2A.174.174 0 0 0 .137.156a.178.178 0 0 0-.02-.04L.049.012A.025.025 0 0 0 .044.007.018.018 0 0 0 .038.003.042.042 0 0 0 .029 0a.126.126 0 0 0-.021 0 .012.012 0 0 0-.006.002A.007.007 0 0 0 0 .006C0 .008 0 .01.002.012L.07.146V.2c0 .007 0 .013.002.017a.02.02 0 0 0 .006.01.02.02 0 0 0 .011.005.08.08 0 0 0 .017.002c.006 0 .012 0 .016-.002A.02.02 0 0 0 .133.228.02.02 0 0 0 .14.218.049.049 0 0 0 .142.2z"/></symbol><symbol id="d"><path d="M.34.018A.01.01 0 0 0 .337.01.018.018 0 0 0 .329.007.05.05 0 0 0 .315.005.06.06 0 0 0 .3.007.022.022 0 0 0 .29.01.01.01 0 0 0 .29.018v.05a.222.222 0 0 0-.066-.05A.166.166 0 0 0 .148 0a.207.207 0 0 0-.062.009.116.116 0 0 0-.076.067.135.135 0 0 0-.01.053c0 .025.005.046.015.064.01.018.025.033.043.045C.077.25.1.26.125.265c.026.006.055.01.087.01h.07v.037a.19.19 0 0 1-.006.05A.087.087 0 0 1 .257.4.08.08 0 0 1 .223.42a.157.157 0 0 1-.051.007.176.176 0 0 1-.053-.007.246.246 0 0 1-.07-.032C.04.385.036.382.033.382L.027.383a.01.01 0 0 0-.004.004.033.033 0 0 0-.002.007.094.094 0 0 0 0 .026.026.026 0 0 0 .008.012C.033.436.04.442.05.447l.035.015a.289.289 0 0 0 .091.016c.03 0 .056-.004.077-.011A.117.117 0 0 0 .332.385.253.253 0 0 0 .34.317V.018M.282.227h-.08A.265.265 0 0 1 .14.22.13.13 0 0 1 .096.202.08.08 0 0 1 .07.172.088.088 0 0 1 .062.133a.08.08 0 0 1 .023-.06A.097.097 0 0 1 .154.05c.023 0 .044.006.064.017.02.012.042.03.064.056v.104z"/></symbol><symbol id="e"><path d="M.4.456V.452A.01.01 0 0 0 .398.45V.446L.396.443l-.16-.43A.015.015 0 0 0 .233.006.022.022 0 0 0 .226.002a.174.174 0 0 0-.04-.001.045.045 0 0 0-.01.002.022.022 0 0 0-.008.004.015.015 0 0 0-.004.006l-.16.43A.326.326 0 0 1 0 .453v.003L.001.46a.008.008 0 0 0 .005.004.03.03 0 0 0 .009.002.15.15 0 0 0 .04-.003A.01.01 0 0 0 .06.46.025.025 0 0 0 .063.455L.202.069V.066L.205.07l.135.386.003.005a.014.014 0 0 0 .006.004.11.11 0 0 0 .047 0A.008.008 0 0 0 .398.462.009.009 0 0 0 .4.456z"/></symbol><symbol id="f"><path d="M.391.262C.391.25.388.242.381.237A.032.032 0 0 0 .365.231H.063C.063.204.065.179.07.157A.152.152 0 0 1 .097.1.12.12 0 0 1 .146.063a.258.258 0 0 1 .17.004.39.39 0 0 1 .03.013.048.048 0 0 0 .016.005.01.01 0 0 0 .005-.001.01.01 0 0 0 .004-.005.064.064 0 0 0 .002-.027.039.039 0 0 0-.003-.01.026.026 0 0 0-.004-.005A.277.277 0 0 0 .27.005a.325.325 0 0 0-.149.01.174.174 0 0 0-.066.046.204.204 0 0 0-.041.074A.351.351 0 0 0 0 .238a.33.33 0 0 0 .014.1c.01.03.024.056.042.076.018.02.04.037.064.047a.21.21 0 0 0 .085.017A.198.198 0 0 0 .29.461a.173.173 0 0 0 .09-.11.28.28 0 0 0 .011-.078V.262m-.06.017A.159.159 0 0 1 .3.389C.276.415.244.429.2.429A.13.13 0 0 1 .073.334a.202.202 0 0 1-.01-.056H.33z"/></symbol><symbol id="g"><path d="M.358.013A.01.01 0 0 0 .357.007.01.01 0 0 0 .352.003.033.033 0 0 0 .343.001a.091.091 0 0 0-.028 0 .042.042 0 0 0-.009.002.01.01 0 0 0-.004.004A.01.01 0 0 0 .3.013v.262C.3.302.298.325.294.34a.13.13 0 0 1-.02.044.083.083 0 0 1-.032.029.097.097 0 0 1-.046.01A.116.116 0 0 1 .13.4a.367.367 0 0 1-.07-.07V.013A.01.01 0 0 0 .056.007.01.01 0 0 0 .052.003.033.033 0 0 0 .043.001a.088.088 0 0 0-.028 0 .042.042 0 0 0-.01.002.01.01 0 0 0-.004.004A.014.014 0 0 0 0 .013v.442L.001.46a.01.01 0 0 0 .005.004.02.02 0 0 0 .008.002l.014.001h.014A.018.018 0 0 0 .05.463.008.008 0 0 0 .054.46.01.01 0 0 0 .055.455V.392C.081.42.105.441.13.454a.165.165 0 0 0 .146.004.127.127 0 0 0 .048-.04A.156.156 0 0 0 .35.36.334.334 0 0 0 .358.28V.013z"/></symbol><symbol id="h"><path d="M.067.013A.01.01 0 0 0 .066.007.01.01 0 0 0 .06.003.033.033 0 0 0 .052.001a.088.088 0 0 0-.028 0 .042.042 0 0 0-.009.002.01.01 0 0 0-.005.004.014.014 0 0 0 0 .006V.46a.01.01 0 0 0 .005.004.022.022 0 0 0 .009.002.088.088 0 0 0 .028 0A.019.019 0 0 0 .061.464.01.01 0 0 0 .066.46.01.01 0 0 0 .067.455V.013m.01.59C.076.589.072.578.066.573.063.566.053.563.038.563c-.014 0-.024.003-.03.008C.004.577 0 .587 0 .603s.003.026.008.032c.006.005.016.008.03.008.015 0 .025-.003.03-.008C.073.63.076.619.076.604z"/></symbol><symbol id="i"><path d="M.245.432V.42A.028.028 0 0 0 .243.411.012.012 0 0 0 .24.406L.235.405c-.003 0-.006 0-.01.002a.16.16 0 0 1-.051.011.061.061 0 0 1-.026-.005A.1.1 0 0 1 .12.395a.235.235 0 0 1-.03-.033.784.784 0 0 1-.033-.05v-.3A.01.01 0 0 0 .057.008.01.01 0 0 0 .052.003.033.033 0 0 0 .043.001a.088.088 0 0 0-.028 0 .042.042 0 0 0-.01.002.01.01 0 0 0-.004.004A.014.014 0 0 0 0 .013v.442L.001.46a.01.01 0 0 0 .005.004.02.02 0 0 0 .008.002l.014.001h.014A.018.018 0 0 0 .05.463.008.008 0 0 0 .054.46.01.01 0 0 0 .055.455v-.07A.375.375 0 0 0 .09.43C.101.44.111.45.121.456a.092.092 0 0 0 .057.017L.193.472A.12.12 0 0 0 .238.459.011.011 0 0 0 .244.451.111.111 0 0 0 .245.432z"/></symbol><symbol id="j"><path d="M0 0z"/></symbol><symbol id="k"><path d="M.341.083A.108.108 0 0 0 .34.065.023.023 0 0 0 .336.059.061.061 0 0 0 .33.049.176.176 0 0 0 .274.017.24.24 0 0 0 .189 0a.207.207 0 0 0-.081.015.156.156 0 0 0-.06.046.214.214 0 0 0-.036.073A.379.379 0 0 0 0 .235c0 .043.005.08.015.11a.21.21 0 0 0 .043.076C.076.44.096.455.12.464A.21.21 0 0 0 .325.432a.046.046 0 0 0 .008-.01.017.017 0 0 0 .004-.006.035.035 0 0 0 .002-.009.1.1 0 0 0 0-.01C.34.386.338.38.335.376.332.372.329.37.326.37.322.371.316.374.31.38a.214.214 0 0 1-.063.038.142.142 0 0 1-.053.01.113.113 0 0 1-.098-.05.245.245 0 0 1-.034-.14C.06.205.064.178.07.155A.174.174 0 0 1 .096.098.114.114 0 0 1 .195.052c.02 0 .037.003.052.009a.219.219 0 0 1 .066.041c.007.006.013.01.017.01C.332.111.333.11.334.108A.01.01 0 0 0 .338.104.03.03 0 0 0 .34.095.06.06 0 0 0 .341.083z"/></symbol><symbol id="l"><path d="M.424.244A.33.33 0 0 0 .41.146.22.22 0 0 0 .37.07.186.186 0 0 0 .301.02.23.23 0 0 0 .208 0a.237.237 0 0 0-.091.016.178.178 0 0 0-.104.121A.35.35 0 0 0 0 .235a.34.34 0 0 0 .013.098c.01.03.023.055.04.076.019.022.042.039.069.051a.23.23 0 0 0 .094.018.233.233 0 0 0 .09-.016.166.166 0 0 0 .066-.047A.202.202 0 0 0 .41.341.336.336 0 0 0 .424.244M.362.238A.342.342 0 0 1 .355.31a.174.174 0 0 1-.024.06.12.12 0 0 1-.046.042.15.15 0 0 1-.072.015.153.153 0 0 1-.068-.014.127.127 0 0 1-.048-.04A.173.173 0 0 1 .07.315.351.351 0 0 1 .07.168a.174.174 0 0 1 .024-.06A.122.122 0 0 1 .14.067.153.153 0 0 1 .211.052c.026 0 .05.004.068.014.02.01.035.022.047.039a.168.168 0 0 1 .028.06.297.297 0 0 1 .008.073z"/></symbol><symbol id="m"><path d="M.63.013A.01.01 0 0 0 .628.007.01.01 0 0 0 .624.003a.033.033 0 0 0-.01-.002.091.091 0 0 0-.028 0 .042.042 0 0 0-.008.002.01.01 0 0 0-.005.004.014.014 0 0 0-.001.006v.272c0 .02-.002.04-.006.056a.122.122 0 0 1-.018.044.079.079 0 0 1-.03.029.086.086 0 0 1-.043.01A.104.104 0 0 1 .413.4a.43.43 0 0 1-.07-.07V.013a.01.01 0 0 0 0-.006.01.01 0 0 0-.006-.004A.033.033 0 0 0 .33.001a.088.088 0 0 0-.028 0 .042.042 0 0 0-.009.002.01.01 0 0 0-.005.004.014.014 0 0 0 0 .006v.272c0 .02-.003.04-.007.056a.128.128 0 0 1-.018.044.079.079 0 0 1-.03.029.086.086 0 0 1-.043.01A.104.104 0 0 1 .126.4.417.417 0 0 1 .058.33V.013A.01.01 0 0 0 .057.007.01.01 0 0 0 .052.003.033.033 0 0 0 .043.001a.088.088 0 0 0-.028 0 .042.042 0 0 0-.01.002.01.01 0 0 0-.004.004A.014.014 0 0 0 0 .013v.442L.001.46a.01.01 0 0 0 .005.004.02.02 0 0 0 .008.002l.014.001h.014A.018.018 0 0 0 .05.463.008.008 0 0 0 .054.46.01.01 0 0 0 .055.455V.392c.026.028.05.049.072.062a.139.139 0 0 0 .068.019.163.163 0 0 0 .05-.007.121.121 0 0 0 .067-.047A.156.156 0 0 0 .33.382a.473.473 0 0 0 .081.07.143.143 0 0 0 .07.02.15.15 0 0 0 .07-.014.12.12 0 0 0 .045-.04A.159.159 0 0 0 .622.36.306.306 0 0 0 .63.29V.013z"/></symbol><symbol id="n"><path d="M.358.018A.01.01 0 0 0 .357.013C.357.01.355.01.353.009a.042.042 0 0 0-.01-.003.082.082 0 0 0-.027 0A.032.032 0 0 0 .308.01a.01.01 0 0 0-.004.004.014.014 0 0 0-.001.005v.063A.273.273 0 0 0 .228.019.165.165 0 0 0 .082.015a.131.131 0 0 0-.048.04.172.172 0 0 0-.026.058.354.354 0 0 0-.008.08V.46l.001.005A.01.01 0 0 0 .006.47a.022.022 0 0 0 .009.003.088.088 0 0 0 .028 0A.019.019 0 0 0 .052.469.01.01 0 0 0 .057.465.01.01 0 0 0 .058.46V.198c0-.027.002-.05.006-.067a.135.135 0 0 1 .02-.044.09.09 0 0 1 .032-.028.105.105 0 0 1 .046-.01c.023 0 .045.008.067.024.022.016.046.04.071.07V.46l.001.005A.01.01 0 0 0 .306.47a.022.022 0 0 0 .009.003.091.091 0 0 0 .037-.003.01.01 0 0 0 .005-.004A.01.01 0 0 0 .358.46V.018z"/></symbol><use xlink:href="#b" transform="matrix(23.4256 0 0 -23.914 112.776 385.91)" fill="#fff"/><use xlink:href="#c" transform="matrix(23.4256 0 0 -23.914 124.415 375.085)" fill="#fff"/><use xlink:href="#d" transform="matrix(23.4256 0 0 -23.914 136.676 386.038)" fill="#fff"/><use xlink:href="#e" transform="matrix(23.4256 0 0 -23.914 154.345 385.91)" fill="#fff"/><use xlink:href="#f" transform="matrix(23.4256 0 0 -23.914 172.916 386.038)" fill="#fff"/><use xlink:href="#g" transform="matrix(23.4256 0 0 -23.914 192.962 385.91)" fill="#fff"/><use xlink:href="#h" transform="matrix(23.4256 0 0 -23.914 212.68 385.91)" fill="#fff"/><use xlink:href="#i" transform="matrix(23.4256 0 0 -23.914 225.852 385.91)" fill="#fff"/><use xlink:href="#j" transform="matrix(23.4256 0 0 -23.914 239.824 385.84)" fill="#fff"/><use xlink:href="#f" transform="matrix(23.4256 0 0 -23.914 254.038 386.038)" fill="#fff"/><use xlink:href="#g" transform="matrix(23.4256 0 0 -23.914 274.062 385.91)" fill="#fff"/><use xlink:href="#j" transform="matrix(23.4256 0 0 -23.914 292.063 385.84)" fill="#fff"/><use xlink:href="#k" transform="matrix(23.4256 0 0 -23.914 306.302 386.038)" fill="#fff"/><use xlink:href="#l" transform="matrix(23.4256 0 0 -23.914 323.8 386.038)" fill="#fff"/><use xlink:href="#m" transform="matrix(23.4256 0 0 -23.914 344.502 385.91)" fill="#fff"/><use xlink:href="#m" transform="matrix(23.4256 0 0 -23.914 370.763 385.91)" fill="#fff"/><use xlink:href="#n" transform="matrix(23.4256 0 0 -23.914 397.047 386.038)" fill="#fff"/><use xlink:href="#g" transform="matrix(23.4256 0 0 -23.914 417.052 385.91)" fill="#fff"/><clipPath id="o"><path transform="matrix(1 0 0 -1 0 500)" d="M0 0h500v500H0z"/></clipPath><g clip-path="url(#o)" fill="#fff"><path d="M106.304 329.31c0-2.548-.131-4.153-.394-4.815-.262-.663-.822-.994-1.68-.994s-1.43.332-1.716.995c-.286.661-.43 2.266-.43 4.815v22.445c0 2.349.144 3.879.43 4.59.286.712.846 1.068 1.68 1.068.859 0 1.424-.325 1.698-.974.274-.65.412-2.048.412-4.197zm14.444 3.748v12.178c0 4.471-.215 7.752-.643 9.837-.43 2.087-1.347 4.035-2.754 5.845-1.406 1.811-3.212 3.147-5.416 4.01-2.205.861-4.737 1.293-7.598 1.293-3.194 0-5.9-.37-8.116-1.106-2.216-.737-3.94-1.849-5.166-3.335-1.228-1.486-2.104-3.284-2.628-5.397-.524-2.11-.787-5.276-.787-9.498v-12.74c0-4.623.477-8.231 1.43-10.83.954-2.599 2.67-4.685 5.149-6.259 2.479-1.572 5.649-2.36 9.51-2.36 3.242 0 6.025.506 8.349 1.517 2.324 1.012 4.117 2.33 5.38 3.953 1.264 1.625 2.128 3.298 2.593 5.022.465 1.724.697 4.348.697 7.87M139.086 330.734l-.398 4.548c1.46-3.257 3.572-4.982 6.341-5.173v12.172c-1.84 0-3.192.261-4.053.781-.862.522-1.393 1.247-1.592 2.177-.199.93-.298 3.071-.298 6.425v13.657H129.04v-34.587zM172.48 343.793h-9.475v-3.988c0-1.39-.108-2.333-.323-2.828-.216-.496-.614-.743-1.194-.743s-.969.217-1.169.652c-.198.434-.298 1.407-.298 2.919v16.315c0 1.235.149 2.16.448 2.777.298.617.737.925 1.318.925.679 0 1.139-.322 1.38-.965.24-.642.36-1.859.36-3.649v-4.117h8.953c-.017 2.763-.112 4.834-.286 6.216-.174 1.382-.73 2.798-1.666 4.248-.937 1.451-2.16 2.546-3.668 3.284-1.509.738-3.374 1.107-5.595 1.107-2.835 0-5.082-.507-6.74-1.524-1.658-1.017-2.831-2.442-3.519-4.275-.688-1.833-1.032-4.434-1.032-7.805v-9.826c0-2.937.282-5.153.846-6.647.563-1.494 1.765-2.828 3.606-4.001 1.84-1.173 4.078-1.759 6.714-1.759 2.619 0 4.858.582 6.715 1.746 1.856 1.165 3.091 2.633 3.705 4.405.613 1.772.92 4.284.92 7.533M188.516 323.124v9.494c.862-.837 1.794-1.464 2.798-1.882a8.285 8.285 0 0 1 3.22-.627c1.757 0 3.253.469 4.489 1.408 1.235.938 1.989 2.019 2.263 3.245.273 1.224.41 3.462.41 6.711v23.848h-10.047v-24.343c0-2.016-.095-3.311-.285-3.884-.191-.574-.62-.86-1.281-.86-.614 0-1.028.295-1.244.886-.215.591-.323 1.764-.323 3.519v24.682h-10.047v-42.197zM218.502 365.321h-10.345v-34.587h10.345zM237.92 339.44c0-1.268-.104-2.12-.31-2.554-.209-.435-.619-.651-1.232-.651-.597 0-.999.195-1.206.585-.208.39-.31 1.266-.31 2.62v16.942c0 1.408.1 2.332.298 2.776.198.442.58.664 1.143.664.647 0 1.078-.248 1.294-.743.215-.495.323-1.707.323-3.635zm10.046-16.315v42.197H237.92v-2.51c-.962 1.046-1.973 1.829-3.034 2.351a7.456 7.456 0 0 1-3.332.784c-1.559 0-2.91-.43-4.054-1.29-1.144-.86-1.877-1.855-2.2-2.985-.324-1.129-.485-2.97-.485-5.526v-16.185c0-2.659.161-4.543.484-5.656.324-1.111 1.065-2.09 2.226-2.931 1.16-.844 2.545-1.264 4.153-1.264 1.243 0 2.383.234 3.42.704 1.035.471 1.976 1.176 2.822 2.116v-9.805zM288.768 343.793h-9.475v-3.988c0-1.39-.108-2.333-.324-2.828-.215-.496-.613-.743-1.193-.743-.58 0-.97.217-1.17.652-.197.434-.297 1.407-.297 2.919v16.315c0 1.235.149 2.16.447 2.777.299.617.738.925 1.319.925.679 0 1.139-.322 1.38-.965.24-.642.36-1.859.36-3.649v-4.117h8.953c-.017 2.763-.112 4.834-.286 6.216-.174 1.382-.731 2.798-1.666 4.248-.938 1.451-2.16 2.546-3.668 3.284-1.51.738-3.374 1.107-5.596 1.107-2.835 0-5.082-.507-6.74-1.524-1.657-1.017-2.83-2.442-3.518-4.275-.688-1.833-1.032-4.434-1.032-7.805v-9.826c0-2.937.28-5.153.846-6.647.563-1.494 1.765-2.828 3.605-4.001 1.84-1.173 4.078-1.759 6.715-1.759 2.619 0 4.858.582 6.714 1.746 1.856 1.165 3.092 2.633 3.705 4.405.613 1.772.92 4.284.92 7.533M306.917 348.875c-1.608 1.234-2.541 2.268-2.798 3.102-.257.834-.386 2.033-.386 3.596 0 1.79.113 2.946.336 3.467.224.522.667.782 1.33.782.63 0 1.041-.204 1.232-.613.19-.408.286-1.48.286-3.219zm-3.184-4.743h-9.424v-2.32c0-2.676.294-4.74.882-6.19.589-1.451 1.77-2.732 3.544-3.845 1.774-1.112 4.078-1.668 6.913-1.668 3.399 0 5.96.63 7.685 1.89 1.724 1.26 2.76 2.806 3.108 4.639.348 1.834.523 5.608.523 11.325v17.358h-9.774v-3.082c-.613 1.237-1.405 2.163-2.375 2.781-.969.618-2.126.926-3.468.926-1.758 0-3.37-.516-4.837-1.55-1.468-1.034-2.201-3.297-2.201-6.79v-2.84c0-2.589.389-4.353 1.169-5.291.779-.939 2.71-2.034 5.793-3.285 3.299-1.355 5.065-2.267 5.297-2.736.233-.47.349-1.425.349-2.867 0-1.808-.129-2.984-.386-3.532-.257-.547-.683-.821-1.28-.821-.681 0-1.104.231-1.269.691-.166.461-.249 1.655-.249 3.584zM333.348 330.734l-.175 3.291c.779-1.306 1.708-2.284 2.786-2.937 1.077-.653 2.304-.979 3.68-.979 2.687 0 4.8 1.306 6.342 3.916.846-1.306 1.799-2.284 2.86-2.937 1.06-.653 2.237-.979 3.53-.979 1.708 0 3.122.435 4.24 1.303 1.12.87 1.837 1.933 2.152 3.193.314 1.26.473 3.306.473 6.138v24.578h-9.748v-22.545c0-2.954-.096-4.783-.286-5.486-.192-.704-.635-1.056-1.332-1.056-.712 0-1.172.348-1.38 1.042-.206.695-.31 2.528-.31 5.5v22.545h-9.748V343.35c0-3.388-.08-5.422-.237-6.098-.158-.678-.593-1.017-1.305-1.017-.448 0-.83.178-1.145.534a2.108 2.108 0 0 0-.521 1.303c-.034.513-.051 1.603-.051 3.271v23.98h-9.748v-34.588zM378.777 340.795c0-2.137-.074-3.431-.224-3.883-.149-.452-.564-.678-1.244-.678-.663 0-1.09.26-1.28.782-.19.52-.286 1.78-.286 3.779v14.335c0 2.086.1 3.389.3 3.91.197.52.63.78 1.292.78.646 0 1.047-.237 1.206-.715.157-.478.236-1.637.236-3.48zm-2.86-10.061-.174 3.057c.895-1.236 1.882-2.16 2.96-2.768a7.052 7.052 0 0 1 3.531-.914c1.558 0 2.905.439 4.041 1.317 1.135.877 1.844 1.89 2.126 3.036.281 1.146.423 3.093.423 5.838v14.57c0 3.145-.179 5.382-.535 6.71-.357 1.33-1.086 2.39-2.189 3.18-1.102.79-2.432 1.187-3.99 1.187a6.814 6.814 0 0 1-3.457-.914c-1.062-.61-2.03-1.514-2.91-2.716v7.93h-10.047v-39.513zM418.14 330.734v34.587h-10.221l.174-2.874c-.696 1.167-1.555 2.042-2.574 2.625-1.02.583-2.192.874-3.52.874-1.507 0-2.76-.277-3.754-.834-.995-.556-1.728-1.294-2.201-2.215a8.417 8.417 0 0 1-.883-2.88c-.116-.999-.173-2.984-.173-5.956v-23.327h10.047v23.536c0 2.693.078 4.292.236 4.795.157.505.584.757 1.28.757.746 0 1.19-.26 1.33-.782.14-.522.212-2.199.212-5.03v-23.276zM445.267 341.786h-8.903v-1.877c0-1.599-.087-2.61-.261-3.036-.174-.426-.61-.639-1.306-.639-.563 0-.986.196-1.268.586-.283.392-.423.978-.423 1.76 0 1.06.07 1.837.212 2.332.14.496.563 1.04 1.268 1.63.704.591 2.15 1.45 4.339 2.58 2.918 1.494 4.833 2.901 5.744 4.222.912 1.321 1.369 3.241 1.369 5.76 0 2.815-.348 4.94-1.045 6.372-.697 1.434-1.861 2.538-3.494 3.311-1.633.772-3.602 1.16-5.906 1.16-2.554 0-4.737-.418-6.553-1.252-1.815-.834-3.063-1.963-3.743-3.388-.68-1.424-1.02-3.579-1.02-6.463v-1.668h8.904v2.19c0 1.858.11 3.066.336 3.621.224.557.667.835 1.33.835.713 0 1.21-.186 1.492-.56.282-.374.423-1.16.423-2.36 0-1.65-.183-2.684-.548-3.1-.381-.418-2.33-1.652-5.843-3.703-2.952-1.737-4.75-3.313-5.397-4.73-.646-1.416-.97-3.097-.97-5.043 0-2.763.349-4.8 1.045-6.112.696-1.312 1.877-2.324 3.543-3.036 1.666-.712 3.602-1.069 5.807-1.069 2.188 0 4.05.291 5.583.873 1.533.582 2.71 1.351 3.53 2.307.822.956 1.319 1.842 1.493 2.658.175.818.262 2.094.262 3.831zM313.736 209.6c.081-.422.104-.683.183-.925.793-2.432 1.615-4.855 2.39-7.292.787-2.48 1.504-4.984 2.301-7.462.56-1.737 1.22-3.44 1.802-5.17.524-1.556 1.004-3.127 1.507-4.69.656-2.038 1.248-4.102 2.02-6.095.213-.552.911-.997 1.485-1.313 1.718-.947 3.445-1.899 5.245-2.67 1.716-.734 3.507-1.322 5.306-1.829a79.4 79.4 0 0 1 6.193-1.458c3.387-.669 6.822-.662 10.254-.467 1.07.061 2.135.22 3.2.367.786.11.874.246.59.985-.657 1.706-1.345 3.4-2.024 5.098-1.095 2.737-2.187 5.474-3.289 8.21-1.39 3.45-2.793 6.897-4.179 10.35a206.1 206.1 0 0 0-1.809 4.665c-.172.46-.435.592-.915.624-2.346.152-4.712.208-7.027.574-3.544.561-7.007 1.51-10.379 2.77-2.417.902-4.896 1.656-7.26 2.675-1.733.745-3.325 1.814-4.98 2.737-.148.082-.3.155-.614.315"/></g><clipPath id="p"><path transform="matrix(1 0 0 -1 0 500)" d="M0 0h500v500H0z"/></clipPath><g clip-path="url(#p)"><g opacity=".51"><clipPath id="q"><path transform="matrix(1 0 0 -1 0 500)" d="M309.498 293.026h32.815v47.509h-32.815z"/></clipPath><g clip-path="url(#q)"><clipPath id="r"><path transform="matrix(1 0 0 -1 0 500)" d="M309.498 293.026h32.814v47.509h-32.814z"/></clipPath><g clip-path="url(#r)"><path d="M309.537 206.974c-.017-.43-.054-.688-.032-.942.22-2.548.471-5.094.673-7.644.204-2.595.334-5.195.548-7.79.151-1.817.407-3.626.582-5.443.158-1.634.268-3.273.404-4.91.177-2.134.284-4.278.583-6.395.083-.585.662-1.177 1.15-1.615 1.458-1.312 2.923-2.632 4.501-3.79 1.506-1.105 3.116-2.084 4.753-2.986a80.045 80.045 0 0 1 5.7-2.825c3.15-1.42 6.494-2.193 9.881-2.781 1.056-.184 2.13-.272 3.2-.37.79-.071.908.042.798.827-.252 1.81-.538 3.616-.814 5.423-.445 2.914-.888 5.828-1.34 8.74-.57 3.678-1.155 7.353-1.72 11.03-.255 1.649-.492 3.3-.706 4.955-.062.485-.288.675-.749.815-2.25.68-4.542 1.272-6.713 2.154-3.324 1.35-6.483 3.06-9.48 5.052-2.15 1.428-4.392 2.724-6.465 4.253-1.517 1.119-2.825 2.52-4.228 3.796-.125.113-.257.218-.526.446" fill="#fff"/></g></g></g><path d="M302.813 209.834c-.08-.422-.103-.683-.182-.924-.793-2.432-1.615-4.855-2.389-7.293-.788-2.48-1.505-4.984-2.302-7.461-.56-1.737-1.219-3.441-1.802-5.17-.524-1.556-1.003-3.127-1.507-4.69-.656-2.039-1.248-4.102-2.019-6.096-.214-.552-.912-.997-1.487-1.313-1.716-.946-3.444-1.899-5.245-2.669-1.715-.735-3.506-1.323-5.305-1.83a79.609 79.609 0 0 0-6.192-1.457c-3.389-.669-6.822-.663-10.255-.467-1.07.061-2.136.219-3.199.367-.788.109-.875.246-.59.985.656 1.706 1.344 3.4 2.023 5.098 1.095 2.736 2.187 5.474 3.288 8.209 1.392 3.451 2.794 6.897 4.18 10.35a209.154 209.154 0 0 1 1.81 4.666c.17.458.433.592.914.623 2.346.153 4.712.208 7.028.575 3.543.561 7.006 1.509 10.378 2.769 2.418.903 4.895 1.657 7.262 2.675 1.731.746 3.322 1.814 4.978 2.738.147.082.301.154.613.315" fill="#fff"/><g opacity=".51"><clipPath id="s"><path transform="matrix(1 0 0 -1 0 500)" d="M274.237 292.792h32.816V340.3h-32.816z"/></clipPath><g clip-path="url(#s)"><clipPath id="t"><path transform="matrix(1 0 0 -1 0 500)" d="M274.237 292.792h32.815v47.509h-32.815z"/></clipPath><g clip-path="url(#t)"><path d="M307.014 207.208c.016-.429.054-.688.03-.942-.218-2.548-.47-5.094-.671-7.644-.204-2.595-.335-5.195-.548-7.789-.151-1.818-.407-3.627-.582-5.444-.158-1.634-.268-3.273-.404-4.91-.177-2.134-.284-4.277-.583-6.394-.083-.586-.662-1.178-1.15-1.616-1.458-1.312-2.923-2.631-4.502-3.79-1.505-1.105-3.115-2.084-4.753-2.986a79.588 79.588 0 0 0-5.7-2.824c-3.148-1.421-6.493-2.194-9.881-2.782-1.056-.184-2.13-.272-3.198-.369-.792-.072-.91.042-.8.826.253 1.81.539 3.617.815 5.424.445 2.913.888 5.828 1.34 8.74.57 3.678 1.155 7.352 1.72 11.03.255 1.648.49 3.3.705 4.954.063.486.289.676.75.815 2.25.681 4.54 1.272 6.713 2.154 3.324 1.351 6.482 3.06 9.48 5.052 2.15 1.428 4.392 2.724 6.464 4.253 1.518 1.119 2.826 2.521 4.229 3.796.125.113.256.218.526.446" fill="#fff"/></g></g></g></g></svg>