<?xml version="1.0" encoding="UTF-8"?>
<!DOCTYPE svg PUBLIC "-//W3C//DTD SVG 1.1//EN" "http://www.w3.org/Graphics/SVG/1.1/DTD/svg11.dtd">
<svg xmlns="http://www.w3.org/2000/svg" version="1.1" width="2084px" height="2084px" style="shape-rendering:geometricPrecision; text-rendering:geometricPrecision; image-rendering:optimizeQuality; fill-rule:evenodd; clip-rule:evenodd" xmlns:xlink="http://www.w3.org/1999/xlink">
<g><path style="opacity:1" fill="#fefffe" d="M 1043.5,326.5 C 1175.2,322.578 1290.53,363.411 1389.5,449C 1455.47,508.72 1499.64,581.886 1522,668.5C 1524.99,682.289 1527.49,696.122 1529.5,710C 1528.55,710.617 1527.72,710.451 1527,709.5C 1477.12,623.284 1408.95,555.45 1322.5,506C 1199.22,440.005 1071.22,429.005 938.5,473C 800.474,526.026 705.641,621.859 654,760.5C 630.851,826.209 620.851,893.876 624,963.5C 625.104,980.519 626.104,997.519 627,1014.5C 596.494,962.31 578.828,905.977 574,845.5C 565.793,692.393 616.959,563.226 727.5,458C 817.28,377.634 922.613,333.8 1043.5,326.5 Z M 967.5,690.5 C 971.685,688.44 976.018,688.273 980.5,690C 976.179,690.499 971.846,690.666 967.5,690.5 Z"/></g>
<g><path style="opacity:1" fill="#fefffe" d="M 977.5,519.5 C 984.508,519.334 991.508,519.5 998.5,520C 937,554.824 885.5,600.991 844,658.5C 770.723,767.443 754.389,884.443 795,1009.5C 835.453,1113.29 906.62,1187.79 1008.5,1233C 1071.22,1258.81 1136.55,1271.14 1204.5,1270C 1171.95,1289.07 1136.95,1301.41 1099.5,1307C 960.966,1322.29 845.132,1278.45 752,1175.5C 671.898,1079.14 639.898,968.478 656,843.5C 676.194,721.101 738.694,627.601 843.5,563C 885.3,539.344 929.967,524.844 977.5,519.5 Z"/></g>
<g><path style="opacity:1" fill="#feed00" d="M 1061.5,634.5 C 1073.38,725.443 1057.71,811.443 1014.5,892.5C 1022.08,907.239 1031.41,920.739 1042.5,933C 1050.34,939.831 1059.34,944.497 1069.5,947C 1110.85,956.163 1148.18,947.663 1181.5,921.5C 1182.52,922.002 1182.69,922.668 1182,923.5C 1171.59,933.907 1161.92,944.907 1153,956.5C 1152.41,957.483 1152.74,958.15 1154,958.5C 1169.09,952.291 1183.09,944.291 1196,934.5C 1196.67,935.167 1196.67,935.833 1196,936.5C 1169.43,962.966 1147.77,992.966 1131,1026.5C 1121.77,1047.64 1118.1,1069.64 1120,1092.5C 1125.49,1109.15 1133.82,1124.15 1145,1137.5C 1153.98,1148.65 1163.14,1159.65 1172.5,1170.5C 1172.17,1170.83 1171.83,1171.17 1171.5,1171.5C 1170.62,1170.24 1169.62,1169.07 1168.5,1168C 1157.65,1164.39 1147.32,1160.06 1137.5,1155C 1151.97,1176.81 1167.97,1197.48 1185.5,1217C 1185.17,1217.17 1184.83,1217.33 1184.5,1217.5C 1182.72,1216.1 1181.06,1214.6 1179.5,1213C 1159.56,1206.87 1141.89,1196.87 1126.5,1183C 1109.03,1167.87 1091.87,1152.37 1075,1136.5C 1037.94,1091.05 1011.94,1039.72 997,982.5C 992.853,966.247 989.186,949.914 986,933.5C 977.999,944.648 969.166,955.148 959.5,965C 941.5,980.333 923.5,995.667 905.5,1011C 893.061,1020.05 879.394,1026.72 864.5,1031C 863,1032.5 861.5,1034 860,1035.5C 859.833,1035.17 859.667,1034.83 859.5,1034.5C 873.136,1018.57 886.302,1002.24 899,985.5C 923.673,949.127 931.007,909.46 921,866.5C 918.118,855.405 914.118,844.738 909,834.5C 892.406,805.329 872.406,778.662 849,754.5C 848.333,753.833 848.333,753.167 849,752.5C 860.166,761.088 872.166,768.422 885,774.5C 885.667,773.833 885.667,773.167 885,772.5C 881.667,769.167 878.333,765.833 875,762.5C 874.312,761.668 874.479,761.002 875.5,760.5C 911.709,789.491 951.042,794.324 993.5,775C 1003.31,768.526 1011.81,760.693 1019,751.5C 1036.76,726.977 1049.43,699.977 1057,670.5C 1059.81,658.658 1061.31,646.658 1061.5,634.5 Z"/></g>
<g><path style="opacity:0.816" fill="#fefffe" d="M 1416.5,663.5 C 1419.52,663.335 1422.52,663.502 1425.5,664C 1426.08,664.893 1426.41,665.893 1426.5,667C 1423.86,681.828 1421.69,696.661 1420,711.5C 1440.68,706.799 1461.51,706.299 1482.5,710C 1483.58,710.674 1484.25,711.674 1484.5,713C 1468.98,754.038 1452.64,794.705 1435.5,835C 1389.52,837.55 1346.69,850.383 1307,873.5C 1308.93,862.377 1312.09,851.544 1316.5,841C 1313.2,841.824 1310.2,843.49 1307.5,846C 1301.35,851.316 1295.35,856.816 1289.5,862.5C 1289.17,860.833 1288.83,859.167 1288.5,857.5C 1291.67,816.471 1295.17,775.471 1299,734.5C 1299.13,729.306 1300.13,724.306 1302,719.5C 1334.18,688.659 1372.35,669.992 1416.5,663.5 Z"/></g>
<g><path style="opacity:0.817" fill="#fefffe" d="M 1141.5,664.5 C 1189.77,668.411 1231.27,687.078 1266,720.5C 1267.92,725.638 1268.92,730.971 1269,736.5C 1272.86,777.303 1276.36,818.136 1279.5,859C 1279.17,860.5 1278.83,862 1278.5,863.5C 1272.65,857.816 1266.65,852.316 1260.5,847C 1257.8,844.49 1254.8,842.824 1251.5,842C 1255.91,852.544 1259.07,863.377 1261,874.5C 1221.31,851.383 1178.48,838.55 1132.5,836C 1115.36,795.705 1099.02,755.038 1083.5,714C 1083.75,712.674 1084.42,711.674 1085.5,711C 1106.49,707.326 1127.32,707.826 1148,712.5C 1145.79,696.56 1143.63,680.56 1141.5,664.5 Z"/></g>
<g><path style="opacity:1" fill="#feed00" d="M 956.5,677.5 C 970.161,678.057 983.828,678.557 997.5,679C 998.451,679.718 998.617,680.551 998,681.5C 993.824,685.875 989.658,690.209 985.5,694.5C 987.977,699.598 989.644,704.931 990.5,710.5C 974.692,711.072 961.358,717.072 950.5,728.5C 948.232,723.696 946.565,718.696 945.5,713.5C 942.201,712.624 938.868,712.457 935.5,713C 938.657,721.47 942.657,729.47 947.5,737C 945.167,738.167 942.833,739.333 940.5,740.5C 938.979,731.394 936.812,722.394 934,713.5C 931.527,712.88 929.027,712.214 926.5,711.5C 936.15,699.85 946.15,688.517 956.5,677.5 Z M 967.5,690.5 C 971.846,690.666 976.179,690.499 980.5,690C 976.018,688.273 971.685,688.44 967.5,690.5 Z"/></g>
<g><path style="opacity:1" fill="#feed00" d="M 974.5,716.5 C 988.384,716.353 996.884,723.02 1000,736.5C 1002.44,751.136 996.937,761.302 983.5,767C 962.952,767.441 953.785,757.274 956,736.5C 958.329,726.106 964.495,719.44 974.5,716.5 Z"/></g>
<g><path style="opacity:1" fill="#feed00" d="M 1092.5,838.5 C 1097.14,837.736 1101.14,838.903 1104.5,842C 1115.87,854.371 1126.87,867.038 1137.5,880C 1134.57,880.218 1131.74,880.718 1129,881.5C 1125.35,891.047 1123.19,900.88 1122.5,911C 1114.51,911.34 1112.84,908.34 1117.5,902C 1115.17,901 1112.83,900 1110.5,899C 1097.88,886.193 1082.55,879.027 1064.5,877.5C 1065.85,871.747 1067.52,866.08 1069.5,860.5C 1065.02,854.853 1060.35,849.353 1055.5,844C 1056.33,843.085 1057.33,842.419 1058.5,842C 1058.17,841.667 1057.83,841.333 1057.5,841C 1069.28,839.921 1080.95,839.087 1092.5,838.5 Z M 1115.5,886.5 C 1115.23,883.817 1116.23,882.317 1118.5,882C 1117.95,883.878 1116.95,885.378 1115.5,886.5 Z M 1120.5,881.5 C 1122.5,881.5 1124.5,881.5 1126.5,881.5C 1125.49,888.73 1122.65,895.063 1118,900.5C 1118.04,896.329 1118.54,892.163 1119.5,888C 1118.81,885.829 1119.14,883.662 1120.5,881.5 Z"/></g>
<g><path style="opacity:1" fill="#feed00" d="M 1073.5,889.5 C 1096.16,890.006 1106.33,901.673 1104,924.5C 1098.63,943.766 1086.47,950.266 1067.5,944C 1053.95,933.243 1050.45,919.743 1057,903.5C 1060.68,896.591 1066.18,891.924 1073.5,889.5 Z"/></g>
<g><path style="opacity:1" fill="#fefffe" d="M 418.5,1310.5 C 439.507,1308 459.174,1311.83 477.5,1322C 491.689,1332.2 499.855,1346.03 502,1363.5C 503.526,1392.15 503.859,1420.82 503,1449.5C 503.971,1466.76 500.638,1483.1 493,1498.5C 482.337,1514.09 467.504,1522.92 448.5,1525C 428.859,1527.43 409.859,1525.09 391.5,1518C 376.338,1508.87 367.838,1495.37 366,1477.5C 364.395,1442.19 364.062,1406.86 365,1371.5C 366.459,1336.55 384.292,1316.22 418.5,1310.5 Z M 432.5,1347.5 C 436.996,1347.83 439.829,1350.16 441,1354.5C 441.667,1396.83 441.667,1439.17 441,1481.5C 438.377,1488.65 434.044,1489.99 428,1485.5C 426.956,1483.29 426.29,1480.95 426,1478.5C 425.333,1438.17 425.333,1397.83 426,1357.5C 425.964,1352.54 428.13,1349.2 432.5,1347.5 Z"/></g>
<g><path style="opacity:1" fill="#fefffe" d="M 742.5,1345.5 C 756.833,1345.5 771.167,1345.5 785.5,1345.5C 785.333,1358.17 785.5,1370.84 786,1383.5C 800.268,1372.56 815.101,1371.72 830.5,1381C 837.532,1387.6 840.699,1395.77 840,1405.5C 840.5,1444.5 840.667,1483.5 840.5,1522.5C 826.167,1522.5 811.833,1522.5 797.5,1522.5C 797.667,1484.17 797.5,1445.83 797,1407.5C 796.294,1401.77 793.294,1400.1 788,1402.5C 787.027,1404.39 786.36,1406.39 786,1408.5C 785.5,1446.5 785.333,1484.5 785.5,1522.5C 771.167,1522.5 756.833,1522.5 742.5,1522.5C 742.5,1463.5 742.5,1404.5 742.5,1345.5 Z"/></g>
<g><path style="opacity:1" fill="#fefffe" d="M 990.5,1345.5 C 1004.83,1345.5 1019.17,1345.5 1033.5,1345.5C 1033.5,1404.5 1033.5,1463.5 1033.5,1522.5C 1019.17,1522.5 1004.83,1522.5 990.5,1522.5C 990.665,1519.48 990.498,1516.48 990,1513.5C 977.341,1525.48 963.175,1527.64 947.5,1520C 939.239,1513.57 935.406,1505.07 936,1494.5C 935.333,1464.5 935.333,1434.5 936,1404.5C 936.521,1385.65 946.187,1375.65 965,1374.5C 974.693,1374.52 983.027,1377.85 990,1384.5C 990.5,1371.5 990.667,1358.5 990.5,1345.5 Z M 981.5,1401.5 C 986.727,1400.24 989.56,1402.24 990,1407.5C 990.667,1434.83 990.667,1462.17 990,1489.5C 990.705,1494.37 988.705,1497.37 984,1498.5C 980.932,1497.71 979.266,1495.71 979,1492.5C 978.333,1463.83 978.333,1435.17 979,1406.5C 979.366,1404.55 980.199,1402.88 981.5,1401.5 Z"/></g>
<g><path style="opacity:1" fill="#fefffe" d="M 599.5,1374.5 C 601.167,1374.5 602.833,1374.5 604.5,1374.5C 604.5,1391.83 604.5,1409.17 604.5,1426.5C 598.135,1425.9 592.135,1427.07 586.5,1430C 583.894,1431.94 582.061,1434.44 581,1437.5C 579.57,1465.8 579.07,1494.14 579.5,1522.5C 565.167,1522.5 550.833,1522.5 536.5,1522.5C 536.5,1474.17 536.5,1425.83 536.5,1377.5C 550.833,1377.5 565.167,1377.5 579.5,1377.5C 578.997,1382.17 578.831,1386.84 579,1391.5C 583.646,1383.01 590.48,1377.34 599.5,1374.5 Z"/></g>
<g><path style="opacity:1" fill="#fefffe" d="M 661.5,1374.5 C 702.667,1372 721.667,1391.33 718.5,1432.5C 705.167,1432.5 691.833,1432.5 678.5,1432.5C 678.816,1423.12 678.316,1413.78 677,1404.5C 674.472,1400.92 671.472,1400.58 668,1403.5C 666.376,1431.46 666.043,1459.46 667,1487.5C 666.865,1492.66 669.032,1496.32 673.5,1498.5C 677.911,1496.69 680.078,1493.36 680,1488.5C 680.5,1479.51 680.666,1470.51 680.5,1461.5C 693.167,1461.5 705.833,1461.5 718.5,1461.5C 718.965,1472.94 718.132,1484.28 716,1495.5C 710.658,1511.84 699.491,1521.34 682.5,1524C 644.233,1529.39 624.733,1512.89 624,1474.5C 623.333,1456.17 623.333,1437.83 624,1419.5C 624.028,1393.98 636.528,1378.98 661.5,1374.5 Z"/></g>
<g><path style="opacity:1" fill="#fefffe" d="M 1146.5,1374.5 C 1186.96,1372.63 1205.96,1391.96 1203.5,1432.5C 1189.83,1432.5 1176.17,1432.5 1162.5,1432.5C 1162.92,1422.75 1162.42,1413.09 1161,1403.5C 1158.85,1401.56 1156.35,1401.06 1153.5,1402C 1152.81,1403.07 1152.31,1404.23 1152,1405.5C 1151.33,1433.83 1151.33,1462.17 1152,1490.5C 1153.44,1498.03 1157.1,1499.7 1163,1495.5C 1164.43,1484.24 1164.93,1472.91 1164.5,1461.5C 1177.5,1461.5 1190.5,1461.5 1203.5,1461.5C 1203.75,1474.41 1202.25,1487.07 1199,1499.5C 1192.86,1513.31 1182.36,1521.48 1167.5,1524C 1151.76,1526.69 1137.09,1524.02 1123.5,1516C 1114.02,1506.93 1109.19,1495.76 1109,1482.5C 1108.07,1456.8 1108.4,1431.13 1110,1405.5C 1113.2,1391.96 1121.37,1382.8 1134.5,1378C 1138.54,1376.51 1142.54,1375.34 1146.5,1374.5 Z"/></g>
<g><path style="opacity:1" fill="#fefffe" d="M 1263.5,1374.5 C 1278.3,1372.8 1292.3,1375.3 1305.5,1382C 1316.36,1390.89 1321.19,1402.39 1320,1416.5C 1320.5,1451.83 1320.67,1487.17 1320.5,1522.5C 1306.5,1522.5 1292.5,1522.5 1278.5,1522.5C 1278.67,1519.15 1278.5,1515.82 1278,1512.5C 1270.51,1523 1260.35,1526.83 1247.5,1524C 1234.54,1522.04 1227.37,1514.54 1226,1501.5C 1225.33,1489.83 1225.33,1478.17 1226,1466.5C 1227.41,1457.08 1232.58,1450.58 1241.5,1447C 1253.48,1442.45 1264.98,1436.95 1276,1430.5C 1277.6,1422.6 1277.93,1414.6 1277,1406.5C 1275.45,1401.62 1272.29,1400.28 1267.5,1402.5C 1266.9,1403.79 1266.4,1405.13 1266,1406.5C 1265.5,1415.49 1265.33,1424.49 1265.5,1433.5C 1252.17,1433.5 1238.83,1433.5 1225.5,1433.5C 1225.33,1425.49 1225.5,1417.49 1226,1409.5C 1227.77,1394.06 1235.94,1383.56 1250.5,1378C 1254.92,1376.65 1259.25,1375.48 1263.5,1374.5 Z M 1275.5,1455.5 C 1276.83,1461.63 1277.5,1468.13 1277.5,1475C 1277.33,1481.5 1277.17,1488 1277,1494.5C 1274.16,1499.33 1270.83,1499.66 1267,1495.5C 1264.78,1485.07 1265.12,1474.74 1268,1464.5C 1270.33,1461.33 1272.83,1458.33 1275.5,1455.5 Z"/></g>
<g><path style="opacity:1" fill="#fefffe" d="M 1408.5,1374.5 C 1422.56,1372.68 1433.39,1377.68 1441,1389.5C 1453.4,1373.31 1468.57,1370.14 1486.5,1380C 1492.5,1385.49 1495.66,1392.33 1496,1400.5C 1496.5,1441.17 1496.67,1481.83 1496.5,1522.5C 1482.83,1522.5 1469.17,1522.5 1455.5,1522.5C 1455.67,1486.83 1455.5,1451.17 1455,1415.5C 1454.67,1412.17 1454.33,1408.83 1454,1405.5C 1452.03,1401.56 1449.03,1400.56 1445,1402.5C 1443.96,1404.71 1443.29,1407.05 1443,1409.5C 1442.5,1447.17 1442.33,1484.83 1442.5,1522.5C 1428.5,1522.5 1414.5,1522.5 1400.5,1522.5C 1400.67,1483.83 1400.5,1445.17 1400,1406.5C 1398.92,1401.88 1396.09,1400.38 1391.5,1402C 1390.3,1402.9 1389.47,1404.07 1389,1405.5C 1388.5,1444.5 1388.33,1483.5 1388.5,1522.5C 1374.5,1522.5 1360.5,1522.5 1346.5,1522.5C 1346.5,1474.17 1346.5,1425.83 1346.5,1377.5C 1360.5,1377.5 1374.5,1377.5 1388.5,1377.5C 1388.33,1381.18 1388.5,1384.85 1389,1388.5C 1393.76,1381.22 1400.26,1376.56 1408.5,1374.5 Z"/></g>
<g><path style="opacity:1" fill="#fefffe" d="M 1585.5,1374.5 C 1609.55,1373.71 1621.05,1385.38 1620,1409.5C 1620.88,1439.85 1620.55,1470.18 1619,1500.5C 1617.54,1512.63 1611.04,1520.46 1599.5,1524C 1585.78,1526.54 1574.61,1522.37 1566,1511.5C 1565.5,1521.83 1565.33,1532.16 1565.5,1542.5C 1551.17,1542.5 1536.83,1542.5 1522.5,1542.5C 1522.5,1487.5 1522.5,1432.5 1522.5,1377.5C 1537.17,1377.5 1551.83,1377.5 1566.5,1377.5C 1566.21,1380.87 1566.05,1384.2 1566,1387.5C 1571.37,1381.27 1577.87,1376.94 1585.5,1374.5 Z M 1568.5,1401.5 C 1574.7,1400.53 1577.53,1403.2 1577,1409.5C 1577.67,1436.17 1577.67,1462.83 1577,1489.5C 1576.71,1491.89 1576.21,1494.22 1575.5,1496.5C 1569.64,1499.31 1566.47,1497.31 1566,1490.5C 1565.33,1463.17 1565.33,1435.83 1566,1408.5C 1566.15,1405.85 1566.99,1403.52 1568.5,1401.5 Z"/></g>
<g><path style="opacity:1" fill="#fefffe" d="M 1799.5,1374.5 C 1811.05,1373.81 1822.38,1374.98 1833.5,1378C 1843.69,1381.53 1850.53,1388.36 1854,1398.5C 1855.25,1407.12 1855.75,1415.79 1855.5,1424.5C 1842.83,1424.5 1830.17,1424.5 1817.5,1424.5C 1817.73,1417.45 1817.23,1410.45 1816,1403.5C 1807.61,1399.52 1803.78,1402.35 1804.5,1412C 1804.32,1415.75 1805.16,1419.25 1807,1422.5C 1810.04,1425.93 1813.54,1428.77 1817.5,1431C 1830.96,1436.48 1842.8,1444.31 1853,1454.5C 1857.08,1462.67 1858.92,1471.34 1858.5,1480.5C 1859.47,1511.03 1844.63,1525.7 1814,1524.5C 1798.63,1525.38 1785.3,1520.71 1774,1510.5C 1771.57,1507.2 1769.9,1503.54 1769,1499.5C 1767.13,1489.92 1766.29,1480.26 1766.5,1470.5C 1779.17,1470.5 1791.83,1470.5 1804.5,1470.5C 1804.25,1479.29 1805.08,1487.95 1807,1496.5C 1810.95,1499.31 1814.45,1498.81 1817.5,1495C 1818.93,1488.12 1818.77,1481.29 1817,1474.5C 1805.42,1466.63 1793.59,1459.13 1781.5,1452C 1769.73,1443.23 1764.4,1431.39 1765.5,1416.5C 1764.05,1391.96 1775.38,1377.96 1799.5,1374.5 Z"/></g>
<g><path style="opacity:1" fill="#fefffe" d="M 866.5,1377.5 C 881.167,1377.5 895.833,1377.5 910.5,1377.5C 910.5,1425.83 910.5,1474.17 910.5,1522.5C 895.833,1522.5 881.167,1522.5 866.5,1522.5C 866.5,1474.17 866.5,1425.83 866.5,1377.5 Z"/></g>
<g><path style="opacity:1" fill="#fefffe" d="M 1644.5,1377.5 C 1658.83,1377.5 1673.17,1377.5 1687.5,1377.5C 1687.33,1415.17 1687.5,1452.83 1688,1490.5C 1688.26,1497.96 1691.6,1499.96 1698,1496.5C 1698.33,1494.83 1698.67,1493.17 1699,1491.5C 1699.5,1453.5 1699.67,1415.5 1699.5,1377.5C 1713.83,1377.5 1728.17,1377.5 1742.5,1377.5C 1742.5,1425.83 1742.5,1474.17 1742.5,1522.5C 1727.83,1522.5 1713.17,1522.5 1698.5,1522.5C 1698.63,1519.11 1698.8,1515.78 1699,1512.5C 1690.37,1523.27 1679.21,1527.1 1665.5,1524C 1657.01,1522.34 1651.18,1517.51 1648,1509.5C 1646.05,1504.02 1645.05,1498.35 1645,1492.5C 1644.5,1454.17 1644.33,1415.83 1644.5,1377.5 Z"/></g>
<g><path style="opacity:1" fill="#fefffe" d="M 469.5,1539.5 C 471.467,1539.26 473.301,1539.59 475,1540.5C 475.5,1562.83 475.667,1585.16 475.5,1607.5C 473.5,1607.5 471.5,1607.5 469.5,1607.5C 469.5,1584.83 469.5,1562.17 469.5,1539.5 Z"/></g>
<g><path style="opacity:1" fill="#fefffe" d="M 525.5,1539.5 C 527.5,1539.5 529.5,1539.5 531.5,1539.5C 532.111,1544.62 530.944,1549.29 528,1553.5C 525.971,1556.03 524.138,1558.7 522.5,1561.5C 521.311,1562.43 519.978,1562.76 518.5,1562.5C 519.763,1557.97 521.597,1553.63 524,1549.5C 524.248,1546.08 524.748,1542.75 525.5,1539.5 Z"/></g>
<g><path style="opacity:1" fill="#fefffe" d="M 886.5,1543.5 C 892.62,1543.26 894.287,1545.76 891.5,1551C 885.593,1551.75 883.927,1549.25 886.5,1543.5 Z"/></g>
<g><path style="opacity:1" fill="#fefffe" d="M 582.5,1560.5 C 589.206,1559.41 595.039,1561.07 600,1565.5C 600.667,1566.83 601.333,1568.17 602,1569.5C 602.5,1582.16 602.667,1594.83 602.5,1607.5C 600.833,1607.5 599.167,1607.5 597.5,1607.5C 597.66,1605.8 597.494,1604.13 597,1602.5C 588.889,1610.04 580.556,1610.38 572,1603.5C 566.993,1593.18 569.826,1586.02 580.5,1582C 586.123,1580.97 591.79,1580.47 597.5,1580.5C 598.591,1568.55 593.257,1563.72 581.5,1566C 578.302,1566.85 575.469,1568.35 573,1570.5C 570.949,1568.19 571.116,1566.02 573.5,1564C 576.571,1562.7 579.571,1561.54 582.5,1560.5 Z M 584.5,1585.5 C 588.833,1585.5 593.167,1585.5 597.5,1585.5C 599.377,1595.96 595.043,1601.96 584.5,1603.5C 575.759,1602.02 573.425,1597.35 577.5,1589.5C 579.765,1587.87 582.099,1586.54 584.5,1585.5 Z"/></g>
<g><path style="opacity:1" fill="#fefffe" d="M 735.5,1560.5 C 752.3,1559.76 759.8,1567.76 758,1584.5C 747.582,1585.49 737.082,1585.82 726.5,1585.5C 725.882,1596.64 731.049,1602.64 742,1603.5C 746.985,1603.17 751.652,1601.84 756,1599.5C 757.365,1600.59 757.699,1601.93 757,1603.5C 749.439,1608.51 741.272,1609.67 732.5,1607C 725.887,1603.96 722.054,1598.79 721,1591.5C 719.346,1582.46 721.013,1574.12 726,1566.5C 728.843,1563.84 732.009,1561.84 735.5,1560.5 Z M 736.5,1565.5 C 747.675,1564.34 753.009,1569.34 752.5,1580.5C 743.833,1580.5 735.167,1580.5 726.5,1580.5C 726.726,1573.3 730.059,1568.3 736.5,1565.5 Z"/></g>
<g><path style="opacity:1" fill="#fefffe" d="M 819.5,1560.5 C 827.65,1559.26 833.483,1562.26 837,1569.5C 838.441,1582.09 838.941,1594.76 838.5,1607.5C 836.533,1607.74 834.699,1607.41 833,1606.5C 832.667,1595.17 832.333,1583.83 832,1572.5C 828.282,1565.05 822.782,1563.55 815.5,1568C 813.667,1569.83 811.833,1571.67 810,1573.5C 809.5,1584.83 809.333,1596.16 809.5,1607.5C 807.5,1607.5 805.5,1607.5 803.5,1607.5C 803.5,1592.17 803.5,1576.83 803.5,1561.5C 805.167,1561.5 806.833,1561.5 808.5,1561.5C 808.337,1563.86 808.503,1566.19 809,1568.5C 811.94,1564.96 815.44,1562.3 819.5,1560.5 Z"/></g>
<g><path style="opacity:1" fill="#fefffe" d="M 954.5,1560.5 C 957.881,1560.46 961.214,1560.79 964.5,1561.5C 964.799,1563.6 964.466,1565.6 963.5,1567.5C 955.685,1564.82 950.185,1567.49 947,1575.5C 946.5,1586.16 946.333,1596.83 946.5,1607.5C 944.5,1607.5 942.5,1607.5 940.5,1607.5C 940.5,1592.17 940.5,1576.83 940.5,1561.5C 942.167,1561.5 943.833,1561.5 945.5,1561.5C 945.336,1564.19 945.503,1566.85 946,1569.5C 948.362,1565.97 951.196,1562.97 954.5,1560.5 Z"/></g>
<g><path style="opacity:1" fill="#fefffe" d="M 1072.5,1560.5 C 1089.3,1559.76 1096.8,1567.76 1095,1584.5C 1084.58,1585.49 1074.08,1585.82 1063.5,1585.5C 1062.88,1596.64 1068.05,1602.64 1079,1603.5C 1083.99,1603.17 1088.65,1601.84 1093,1599.5C 1094.37,1600.59 1094.7,1601.93 1094,1603.5C 1086.44,1608.51 1078.27,1609.67 1069.5,1607C 1062.89,1603.96 1059.05,1598.79 1058,1591.5C 1056.35,1582.46 1058.01,1574.12 1063,1566.5C 1065.84,1563.84 1069.01,1561.84 1072.5,1560.5 Z M 1073.5,1565.5 C 1084.68,1564.34 1090.01,1569.34 1089.5,1580.5C 1080.83,1580.5 1072.17,1580.5 1063.5,1580.5C 1063.73,1573.3 1067.06,1568.3 1073.5,1565.5 Z"/></g>
<g><path style="opacity:1" fill="#fefffe" d="M 1157.5,1560.5 C 1165.65,1559.26 1171.48,1562.26 1175,1569.5C 1176.44,1582.09 1176.94,1594.76 1176.5,1607.5C 1174.53,1607.74 1172.7,1607.41 1171,1606.5C 1170.67,1595.17 1170.33,1583.83 1170,1572.5C 1166.28,1565.05 1160.78,1563.55 1153.5,1568C 1151.67,1569.83 1149.83,1571.67 1148,1573.5C 1147.5,1584.83 1147.33,1596.16 1147.5,1607.5C 1145.5,1607.5 1143.5,1607.5 1141.5,1607.5C 1141.5,1592.17 1141.5,1576.83 1141.5,1561.5C 1143.17,1561.5 1144.83,1561.5 1146.5,1561.5C 1146.34,1563.86 1146.5,1566.19 1147,1568.5C 1149.94,1564.96 1153.44,1562.3 1157.5,1560.5 Z"/></g>
<g><path style="opacity:1" fill="#fefffe" d="M 1290.5,1560.5 C 1296.99,1559.55 1302.66,1561.22 1307.5,1565.5C 1308.95,1567.67 1308.79,1569.67 1307,1571.5C 1300.97,1565.31 1294.13,1564.14 1286.5,1568C 1282.52,1572.76 1280.86,1578.26 1281.5,1584.5C 1282.74,1603.64 1291.4,1607.98 1307.5,1597.5C 1309.05,1600.57 1308.39,1603.07 1305.5,1605C 1296.34,1610.29 1287.84,1609.46 1280,1602.5C 1274.85,1592.14 1274.19,1581.47 1278,1570.5C 1280.92,1565.4 1285.08,1562.06 1290.5,1560.5 Z"/></g>
<g><path style="opacity:1" fill="#fefffe" d="M 1364.5,1560.5 C 1377.04,1558.51 1385.2,1563.51 1389,1575.5C 1390.32,1583.84 1389.32,1591.84 1386,1599.5C 1375.01,1611.04 1363.67,1611.37 1352,1600.5C 1348.19,1591.76 1347.53,1582.76 1350,1573.5C 1352.58,1566.49 1357.42,1562.15 1364.5,1560.5 Z M 1365.5,1565.5 C 1374.34,1564.5 1380.17,1568.17 1383,1576.5C 1384.33,1584.2 1383.33,1591.53 1380,1598.5C 1374.12,1603.87 1367.62,1604.71 1360.5,1601C 1357.77,1598.37 1355.94,1595.21 1355,1591.5C 1354.15,1585.75 1354.48,1580.08 1356,1574.5C 1357.78,1569.89 1360.94,1566.89 1365.5,1565.5 Z"/></g>
<g><path style="opacity:1" fill="#fefffe" d="M 1451.5,1560.5 C 1459.3,1559.48 1464.8,1562.48 1468,1569.5C 1472.54,1562.93 1478.71,1560.09 1486.5,1561C 1493.22,1562.92 1496.72,1567.42 1497,1574.5C 1497.5,1585.49 1497.67,1596.49 1497.5,1607.5C 1495.5,1607.5 1493.5,1607.5 1491.5,1607.5C 1491.67,1596.16 1491.5,1584.83 1491,1573.5C 1488.25,1565.22 1483.08,1563.39 1475.5,1568C 1473.67,1569.83 1471.83,1571.67 1470,1573.5C 1469.5,1584.83 1469.33,1596.16 1469.5,1607.5C 1467.5,1607.5 1465.5,1607.5 1463.5,1607.5C 1463.67,1596.16 1463.5,1584.83 1463,1573.5C 1460.17,1565.23 1455,1563.4 1447.5,1568C 1445.67,1569.83 1443.83,1571.67 1442,1573.5C 1441.5,1584.83 1441.33,1596.16 1441.5,1607.5C 1439.5,1607.5 1437.5,1607.5 1435.5,1607.5C 1435.5,1592.17 1435.5,1576.83 1435.5,1561.5C 1437.17,1561.5 1438.83,1561.5 1440.5,1561.5C 1440.34,1563.86 1440.5,1566.19 1441,1568.5C 1443.98,1564.95 1447.48,1562.29 1451.5,1560.5 Z"/></g>
<g><path style="opacity:1" fill="#fefffe" d="M 1560.5,1560.5 C 1568.3,1559.48 1573.8,1562.48 1577,1569.5C 1581.54,1562.93 1587.71,1560.09 1595.5,1561C 1602.22,1562.92 1605.72,1567.42 1606,1574.5C 1606.5,1585.49 1606.67,1596.49 1606.5,1607.5C 1604.5,1607.5 1602.5,1607.5 1600.5,1607.5C 1600.67,1596.16 1600.5,1584.83 1600,1573.5C 1597.25,1565.22 1592.08,1563.39 1584.5,1568C 1582.67,1569.83 1580.83,1571.67 1579,1573.5C 1578.5,1584.83 1578.33,1596.16 1578.5,1607.5C 1576.5,1607.5 1574.5,1607.5 1572.5,1607.5C 1572.67,1596.16 1572.5,1584.83 1572,1573.5C 1569.17,1565.23 1564,1563.4 1556.5,1568C 1554.67,1569.83 1552.83,1571.67 1551,1573.5C 1550.5,1584.83 1550.33,1596.16 1550.5,1607.5C 1548.5,1607.5 1546.5,1607.5 1544.5,1607.5C 1544.5,1592.17 1544.5,1576.83 1544.5,1561.5C 1546.17,1561.5 1547.83,1561.5 1549.5,1561.5C 1549.34,1563.86 1549.5,1566.19 1550,1568.5C 1552.98,1564.95 1556.48,1562.29 1560.5,1560.5 Z"/></g>
<g><path style="opacity:1" fill="#fefffe" d="M 1753.5,1560.5 C 1761.65,1559.26 1767.48,1562.26 1771,1569.5C 1772.44,1582.09 1772.94,1594.76 1772.5,1607.5C 1770.53,1607.74 1768.7,1607.41 1767,1606.5C 1766.67,1595.17 1766.33,1583.83 1766,1572.5C 1762.28,1565.05 1756.78,1563.55 1749.5,1568C 1747.67,1569.83 1745.83,1571.67 1744,1573.5C 1743.5,1584.83 1743.33,1596.16 1743.5,1607.5C 1741.5,1607.5 1739.5,1607.5 1737.5,1607.5C 1737.5,1592.17 1737.5,1576.83 1737.5,1561.5C 1739.17,1561.5 1740.83,1561.5 1742.5,1561.5C 1742.34,1563.86 1742.5,1566.19 1743,1568.5C 1745.94,1564.96 1749.44,1562.3 1753.5,1560.5 Z"/></g>
<g><path style="opacity:1" fill="#fefffe" d="M 642.5,1561.5 C 644.604,1561.2 646.604,1561.53 648.5,1562.5C 653.099,1575.13 657.599,1587.8 662,1600.5C 666.994,1587.69 671.494,1574.69 675.5,1561.5C 677.5,1561.5 679.5,1561.5 681.5,1561.5C 676.572,1576.62 671.238,1591.62 665.5,1606.5C 662.679,1607.97 660.179,1607.64 658,1605.5C 652.534,1590.91 647.367,1576.24 642.5,1561.5 Z"/></g>
<g><path style="opacity:1" fill="#fefffe" d="M 886.5,1561.5 C 888.5,1561.5 890.5,1561.5 892.5,1561.5C 892.5,1576.83 892.5,1592.17 892.5,1607.5C 890.5,1607.5 888.5,1607.5 886.5,1607.5C 886.5,1592.17 886.5,1576.83 886.5,1561.5 Z"/></g>
<g><path style="opacity:1" fill="#fefffe" d="M 1654.5,1561.5 C 1656.47,1561.26 1658.3,1561.59 1660,1562.5C 1660.33,1573.83 1660.67,1585.17 1661,1596.5C 1662.32,1601.32 1665.49,1603.65 1670.5,1603.5C 1675.97,1602.34 1680.14,1599.34 1683,1594.5C 1683.5,1583.51 1683.67,1572.51 1683.5,1561.5C 1685.5,1561.5 1687.5,1561.5 1689.5,1561.5C 1689.5,1576.83 1689.5,1592.17 1689.5,1607.5C 1684.63,1608.47 1682.47,1606.47 1683,1601.5C 1675.16,1609.82 1666.83,1610.48 1658,1603.5C 1656.72,1601.28 1655.72,1598.95 1655,1596.5C 1654.5,1584.84 1654.33,1573.17 1654.5,1561.5 Z"/></g>
</svg>
